<?xml version="1.0" encoding="UTF-8"?>
<svg id="Camada_2" data-name="Camada 2" xmlns="http://www.w3.org/2000/svg" viewBox="0 0 267.6 290.87">
  <defs>
    <style>
      .cls-1 {
        stroke-width: 0px;
      }
    </style>
  </defs>
  <g id="Camada_1-2" data-name="Camada 1">
    <g>
      <path class="cls-1" d="m267.44,189.85c0,20.55-.32,41.1.15,61.64.2,8.66-2.72,14.31-10.37,18.36-10.14,5.37-20.01,11.29-29.84,17.23-8.65,5.23-16.9,4.95-25.55-.14-23.38-13.75-47.01-27.1-70.31-40.99-5.11-3.05-8.92-3.09-13.86.07-8.85,5.65-18.21,10.5-27.19,15.95-9.45,5.74-19.14,6.42-29.49,2.85-13.14-4.53-23.59-12.79-32.49-23.11C10.71,221.08-.85,197.77.05,169.84c.21-6.41,2.79-12.75,4.32-19.12,1.33-5.53,3.81-11.03,3.88-16.56.38-31.55.44-63.11.03-94.66-.12-9.01,3.1-14.66,10.95-18.77,10.17-5.32,20.01-11.28,29.9-17.13,8.42-4.98,16.53-4.7,24.91.24,16.42,9.69,33.07,18.98,49.43,28.76,4.48,2.68,8.31,3.71,12.56.13,8.93-7.5,17.65-7.22,26.89-.1,4.99,3.85,10.6,7.29,16.45,9.55,15.28,5.88,23.56,17.23,27.39,32.49,1.42,5.64,4.92,9.03,9.95,11.8,14.12,7.79,27.91,16.19,41.98,24.08,6.22,3.49,8.95,8.22,8.86,15.44-.28,21.28-.1,42.56-.1,63.84Zm-7.86-54.45c-11.73,6.81-21.87,12.61-31.92,18.56-8.58,5.08-17.02,5.13-25.64.07-14.33-8.41-28.43-17.29-43.24-24.76-10.19-5.14-16.7-12.26-19.12-23.17-2.35-10.6-8.78-17.14-18.5-21.75-9.58-4.55-18.51-10.47-27.97-15.93-2.25,3.16-3.94,5.53-5.63,7.9q-5.9,8.29-14.49,3.28c-16.48-9.56-32.98-19.1-49.49-28.6-1.79-1.03-3.75-1.76-6.24-2.92v89.12c2.94-1.52,5.09-2.53,7.14-3.72,14.8-8.56,29.86-16.72,44.29-25.88,13.09-8.31,25.94-7.5,38.99-1.12,31.27,15.28,56.62,59.86,53.94,94.58-1.04,13.53-6.53,24.41-19.11,30.91-2.88,1.49-5.55,3.37-9.26,5.65,25.95,14.92,50.55,29.41,75.6,43.06,3.44,1.88,9.77.93,13.67-.96,10.31-4.99,19.88-11.48,30.01-16.86,5.22-2.77,7.14-6.24,7.09-12.17-.27-32.03-.13-64.06-.12-96.08,0-5.8,0-11.6,0-19.22Zm-163.5,89.23c-3.55-30.87-18.01-58.83-48.38-76.49-21.52-12.51-39.01-1.97-39.93,22.89-.04.98-.09,1.96,0,2.93,3.13,33.37,18.21,59.85,46.21,78.4,9.21,6.1,19.87,9.6,30.39,3.39,10.28-6.07,11.34-16.92,11.72-31.12Zm-26.79-106.66c46.02,22.8,67.65,60.14,63.32,109.33,11.01-3.92,18.24-10.67,20.34-22.55,2.48-14.06-.66-27.22-5.91-39.98-9.18-22.3-22.62-41.06-45.24-51.62-11.76-5.49-22.57-3.98-32.51,4.82Zm10.59-44.17c7.69-18.78,27-21.94,41.24-33.08-18.62-10.66-36.42-21.25-54.69-30.94-3.13-1.66-8.86-.7-12.37,1.07-11.09,5.63-21.74,12.14-32.45,18.48-6.14,3.63-6.24,7-.16,10.57,18.94,11.13,38,22.06,58.43,33.9Zm77.25,44.69c18.68,10.63,36.03,20.83,53.8,30.26,2.71,1.44,7.83.26,10.95-1.38,11.21-5.88,22.11-12.37,33-18.85,6.19-3.68,6.12-6.88-.11-10.54-14.92-8.76-29.89-17.43-44.95-25.95-1.61-.91-4.44-1.46-5.85-.66-15.25,8.59-30.32,17.49-46.84,27.12Zm-56.7-55.62c12.32,7.15,23.2,13.56,34.21,19.72,1.42.79,3.98,1.02,5.31.27,15.22-8.53,30.3-17.3,46.58-26.69-12.48-7.22-23.75-13.83-35.16-20.19-1.15-.64-3.42-.28-4.7.45-15.06,8.48-30.02,17.13-46.25,26.44Zm51.31,49.01c16.38-9.49,32.59-18.88,49.26-28.54-2.78-7.17-5.36-13.8-8.19-21.08-11.94,6.86-22.72,13.05-33.49,19.26q-17.8,10.27-8.83,29.22c.09.2.34.32,1.25,1.13Zm-69.62,56.04c7.74-4.66,14.66-8.82,22.18-13.35-2.73-3.19-4.71-5.51-7-8.19-7.43,4.26-14.49,8.31-22.11,12.68,2.44,3.12,4.46,5.71,6.92,8.86Zm5.39,7.26c1.57,2.8,3.17,5.64,5.04,8.97,7.66-4.63,14.66-8.85,22.1-13.35-2.09-3.42-3.78-6.2-5.58-9.15-7.09,4.15-13.41,7.82-19.69,11.55-.58.34-.97,1.01-1.87,1.98Zm-28.77-28.91c5.33,2.41,9.6,6.11,12.18,5.17,6.79-2.47,12.84-6.96,19.19-10.65l-.06-2.91c-3.77-.99-8.13-3.67-11.2-2.61-6.29,2.17-11.9,6.33-20.11,11Zm41.57,54.8c.75-.23,1.26-.29,1.67-.52,4.21-2.45,8.4-4.93,12.62-7.39q8.42-4.9,3.13-14.19c-4.79,2.8-9.36,6.13-14.44,8.3-7.5,3.2-7.73,7.52-2.98,13.8Zm23.29-3.33c-4.76,2.73-9.13,5.23-13.5,7.74-9.02,5.19-9.03,5.24-4.56,15.45,4.46-2.57,8.68-5.59,13.34-7.57,7.57-3.21,7.36-8.4,4.71-15.62Zm-50.82-68.8c-13.95-5.2-24.71-2.63-32.24,6.39,12.69,10.14,20.92-1.15,32.24-6.39Zm30.82,115.32c10.54-4.69,19.91-10.05,20.7-24.24-10.05,6.12-23.28,7.93-20.7,24.24Z"/>
      <path class="cls-1" d="m210.65,220.47c0-12.96-.2-25.93.17-38.88.08-2.59,2.37-5.12,3.64-7.68,1.45,2.59,4.13,5.16,4.16,7.77.31,26.41.29,52.82.03,79.22-.03,2.58-2.31,5.13-3.55,7.7-1.48-2.6-4.16-5.15-4.25-7.8-.44-13.43-.2-26.89-.2-40.34Z"/>
      <path class="cls-1" d="m82.14,228.14c.24,16.56-6.64,21.37-20.47,12.51-25.51-16.34-39.3-40.22-39.64-70.82-.14-12.59,6.55-16.35,17.74-10.29,22.73,12.32,34.73,32.71,41.04,57.03.55,2.12,1.02,4.28,1.29,6.45.21,1.68.04,3.41.04,5.12Zm-50.5-62.3c-7.8,18.79,17.99,66.24,40.63,69.89,8.39-18.87-17.47-65.53-40.63-69.89Z"/>
      <path class="cls-1" d="m68.78,51.99c-11.13-.07-19.05-5.31-19.27-12.76-.22-7.45,7.4-12.99,18.65-13.55,10.94-.54,20.65,5.45,20.93,12.91.29,7.6-8.6,13.47-20.32,13.39Zm-10.87-12.82c6.88,6.86,16.1,6.69,22.47-.41-6.87-6.81-16.57-6.63-22.47.41Z"/>
      <path class="cls-1" d="m210.05,136.68c-8.35-5.2-16.23-9.97-23.83-15.16-.52-.35.47-4.8,1.84-5.7,6.31-4.16,12.94-7.83,19.6-11.43,1.29-.7,3.54-.91,4.77-.25,6.87,3.7,13.71,7.52,20.2,11.83,1.3.86,2.03,5.47,1.39,5.9-7.65,5.11-15.6,9.75-23.96,14.8Zm-10.81-17.11c9.98,8.38,11.46,8.39,22.09.12-9.79-8.47-11.86-8.48-22.09-.12Z"/>
    </g>
  </g>
</svg>